<?xml version="1.0" standalone="no"?>
<!DOCTYPE svg PUBLIC "-//W3C//DTD SVG 20010904//EN"
 "http://www.w3.org/TR/2001/REC-SVG-20010904/DTD/svg10.dtd">
<svg version="1.0" xmlns="http://www.w3.org/2000/svg"
 width="413.000000pt" height="405.000000pt" viewBox="0 0 413.000000 405.000000"
 preserveAspectRatio="xMidYMid meet">

<g transform="translate(0.000000,405.000000) scale(0.100000,-0.100000)"
fill="#000000" stroke="none">
<path d="M1583 3869 c-134 -66 -212 -297 -184 -540 20 -177 94 -300 215 -355
52 -23 67 -26 140 -22 228 13 347 183 315 451 -13 105 -36 176 -86 266 -100
179 -270 264 -400 200z m184 -60 c86 -42 170 -150 213 -273 77 -224 30 -428
-114 -503 -47 -24 -166 -29 -220 -9 -132 50 -208 233 -192 458 11 140 45 235
109 298 64 62 119 70 204 29z"/>
<path d="M1643 3799 c-81 -23 -153 -195 -153 -367 0 -134 42 -288 75 -276 19
8 19 22 1 66 -29 68 -41 198 -27 288 37 241 137 316 255 191 55 -57 81 -23 28
36 -50 54 -119 78 -179 62z"/>
<path d="M2490 3833 c-118 -41 -227 -147 -295 -288 -102 -209 -95 -387 20
-501 73 -73 130 -97 235 -98 72 -1 92 3 134 24 141 72 239 288 240 525 1 127
-17 198 -64 264 -58 80 -167 110 -270 74z m162 -59 c70 -33 118 -140 118 -265
0 -232 -112 -464 -241 -499 -100 -27 -224 10 -283 85 -63 79 -78 160 -52 277
60 269 298 479 458 402z"/>
<path d="M2520 3737 c-53 -17 -178 -143 -227 -229 -56 -98 -77 -174 -71 -257
5 -70 35 -144 63 -155 26 -10 28 19 3 66 -35 66 -31 173 9 261 74 156 209 286
299 287 6 0 23 -9 37 -20 44 -35 75 -20 44 21 -30 39 -87 48 -157 26z"/>
<path d="M983 3286 c-59 -28 -101 -79 -135 -165 -20 -51 -22 -73 -22 -231 -1
-142 3 -186 18 -235 41 -131 96 -209 180 -253 44 -23 63 -26 142 -26 82 0 97
3 157 32 81 40 121 87 147 171 25 80 25 152 0 266 -54 244 -222 444 -389 461
-35 4 -58 -1 -98 -20z m163 -60 c143 -67 267 -286 281 -497 13 -194 -77 -293
-268 -294 -77 0 -89 3 -128 28 -80 53 -131 166 -152 339 -19 163 16 331 83
395 65 61 103 67 184 29z"/>
<path d="M1006 3178 c-50 -50 -78 -135 -84 -251 -5 -114 7 -190 50 -299 23
-62 34 -78 50 -78 24 0 23 4 -22 134 -55 156 -51 326 12 432 27 46 58 58 101
40 18 -7 41 -23 51 -35 22 -24 41 -27 49 -7 7 17 -48 71 -86 85 -52 20 -87 13
-121 -21z"/>
<path d="M3114 3186 c-249 -81 -463 -411 -403 -623 28 -100 157 -180 307 -191
156 -10 245 73 312 293 74 242 64 433 -27 502 -42 32 -124 40 -189 19z m151
-68 c15 -12 34 -36 41 -54 32 -76 8 -277 -51 -439 -44 -120 -85 -169 -161
-191 -46 -13 -59 -13 -120 1 -146 33 -214 99 -214 207 0 82 45 204 101 277
135 175 319 266 404 199z"/>
<path d="M3134 3082 c-146 -51 -296 -229 -325 -386 -15 -83 -5 -129 37 -166
39 -34 52 -37 61 -14 3 10 -5 25 -25 42 -37 33 -44 60 -31 126 30 166 220 366
346 366 33 0 52 16 37 30 -20 18 -52 18 -100 2z"/>
<path d="M2015 2876 c-125 -29 -175 -74 -175 -158 0 -30 -6 -50 -17 -60 -10
-9 -77 -45 -149 -81 -71 -36 -136 -72 -143 -81 -25 -30 11 -205 53 -261 31
-40 32 -41 251 -63 188 -19 281 -76 349 -211 l33 -65 36 56 c19 30 48 65 64
76 31 22 96 29 145 17 20 -5 38 -1 65 16 38 24 72 57 73 72 0 4 9 27 20 51 40
88 49 221 24 342 -31 150 -98 241 -222 300 -114 54 -294 76 -407 50z m250 -61
c237 -49 330 -166 330 -415 0 -139 -20 -212 -70 -266 -31 -33 -38 -36 -71 -29
-54 10 -80 33 -111 100 -23 51 -28 76 -31 168 -4 102 15 261 39 324 9 25 -13
56 -35 47 -28 -11 -66 -206 -66 -341 0 -104 15 -173 52 -241 16 -30 28 -55 26
-56 -23 -13 -85 -63 -91 -73 -13 -20 -24 -15 -37 17 -40 98 -213 172 -425 184
-124 7 -154 25 -176 108 -9 34 -10 53 -2 70 6 13 15 35 21 50 9 21 37 40 122
83 135 68 150 81 150 138 0 23 6 53 13 66 35 71 197 100 362 66z"/>
<path d="M2010 2784 c-45 -19 -80 -53 -80 -75 0 -32 22 -32 46 -1 33 42 106
58 188 43 61 -11 76 -9 76 14 0 33 -166 47 -230 19z"/>
<path d="M1942 2608 c-35 -35 15 -88 70 -72 39 12 57 37 42 62 -14 21 -93 29
-112 10z"/>
<path d="M1445 2328 c-41 -48 -68 -85 -143 -200 -13 -20 -30 -52 -36 -70 -7
-18 -20 -49 -29 -70 -9 -20 -22 -69 -28 -109 -31 -204 84 -394 297 -489 67
-30 228 -69 239 -58 4 3 2 29 -3 56 -19 104 25 162 173 232 112 53 138 74 160
127 17 39 20 134 6 161 -5 9 -13 35 -18 57 l-8 40 -48 -3 c-56 -4 -121 22
-157 63 -70 78 -107 95 -207 95 -26 0 -53 4 -59 8 -6 4 -26 51 -44 105 -18 54
-36 100 -41 102 -4 3 -28 -19 -54 -47z m59 -134 c12 -33 25 -65 29 -72 5 -7
36 -12 80 -13 105 -2 117 -7 196 -81 50 -46 83 -69 107 -74 18 -3 53 -22 77
-41 l43 -35 -7 -60 c-9 -74 -28 -96 -117 -133 -155 -65 -232 -145 -232 -241 0
-18 -5 -36 -10 -39 -15 -9 -136 31 -195 65 -128 73 -214 212 -215 345 0 50 34
175 64 235 31 64 138 211 150 207 5 -2 19 -30 30 -63z"/>
<path d="M1417 2108 c-9 -7 -34 -49 -56 -94 -83 -167 -71 -316 36 -434 19 -22
41 -40 48 -40 27 0 21 26 -16 68 -51 58 -72 106 -77 175 -4 57 23 207 37 207
4 0 20 25 36 55 21 38 27 57 19 65 -7 7 -15 6 -27 -2z"/>
<path d="M1757 1963 c-4 -3 -7 -15 -7 -25 0 -14 8 -18 35 -18 42 0 47 21 10
38 -30 14 -30 14 -38 5z"/>
<path d="M2691 2257 c-31 -38 44 -148 161 -237 170 -129 199 -170 200 -277 0
-95 -39 -196 -97 -245 -36 -32 -123 -68 -202 -85 -86 -18 -267 -22 -670 -13
-218 5 -233 6 -233 23 0 33 32 75 69 91 20 8 65 17 99 20 35 3 83 14 105 24
55 24 104 82 112 129 15 92 46 170 78 194 97 74 155 85 332 63 142 -18 162
-18 169 2 12 31 -13 40 -136 52 -213 19 -298 8 -379 -52 -53 -39 -103 -130
-114 -207 -14 -99 -59 -135 -183 -149 -42 -5 -86 -12 -97 -16 -74 -27 -114
-94 -115 -188 0 -56 1 -58 23 -52 53 16 195 18 439 7 371 -18 534 -1 678 72
113 56 180 178 180 327 0 118 -50 196 -201 311 -89 67 -154 138 -164 177 -10
39 -34 53 -54 29z"/>
<path d="M2435 1904 c-23 -8 -57 -28 -77 -44 -38 -32 -75 -108 -65 -135 11
-27 34 -16 45 24 7 21 21 49 31 63 37 47 172 83 242 65 44 -11 69 -5 69 17 0
27 -174 34 -245 10z"/>
<path d="M3080 1074 c-98 -31 -145 -117 -106 -193 25 -48 69 -67 240 -105 121
-28 159 -67 140 -145 -23 -89 -188 -120 -301 -55 -23 13 -49 34 -57 45 -9 13
-21 19 -30 16 -22 -9 -20 -21 9 -55 87 -103 342 -102 406 2 25 40 25 111 0
152 -24 40 -69 60 -188 85 -126 27 -158 41 -176 76 -41 78 42 154 167 152 61
-1 105 -16 141 -47 25 -22 55 -24 55 -4 0 18 -57 62 -99 77 -54 19 -141 18
-201 -1z"/>
<path d="M860 796 c0 -278 1 -286 20 -286 18 0 20 8 22 98 l3 97 135 5 c118 4
140 8 172 28 102 64 103 243 1 312 -34 24 -45 25 -195 28 l-158 3 0 -285z
m319 226 c90 -48 94 -200 7 -253 -26 -16 -51 -19 -158 -19 l-128 0 0 145 0
145 123 0 c99 0 129 -3 156 -18z"/>
<path d="M937 1023 c-11 -11 -8 -233 3 -233 6 0 10 42 10 106 l0 106 115 -3
c63 -2 115 -3 115 -1 0 2 -16 10 -35 18 -35 14 -195 20 -208 7z"/>
<path d="M1656 1048 c-8 -18 -35 -80 -61 -138 -26 -58 -65 -144 -86 -192 -21
-48 -47 -105 -57 -125 -34 -67 -36 -83 -12 -83 17 0 28 15 52 70 l31 70 172 0
172 0 32 -70 c23 -53 36 -70 51 -70 25 0 25 6 1 56 -10 21 -58 127 -106 234
-48 107 -96 214 -107 238 -25 55 -60 59 -82 10z m118 -186 c36 -84 66 -157 66
-162 0 -6 -59 -10 -145 -10 -104 0 -145 3 -145 12 0 6 23 63 51 127 29 64 60
136 71 160 11 26 22 40 27 35 5 -5 39 -78 75 -162z"/>
<path d="M1642 840 c-41 -98 -52 -134 -33 -115 11 11 91 194 91 207 0 29 -22
-5 -58 -92z"/>
<path d="M2007 1074 c-3 -4 -3 -14 2 -23 5 -9 32 -83 61 -166 145 -415 128
-375 156 -375 21 0 29 18 99 233 42 127 80 235 83 239 4 4 43 -101 86 -233
107 -323 96 -324 222 31 51 146 95 272 96 280 4 21 -29 24 -40 3 -5 -10 -44
-123 -87 -251 -43 -128 -83 -231 -88 -229 -5 1 -46 113 -91 247 -54 163 -86
245 -95 245 -10 0 -42 -82 -96 -244 -45 -135 -85 -246 -91 -248 -5 -2 -45 104
-88 235 -43 130 -83 243 -89 250 -10 13 -30 16 -40 6z"/>
<path d="M1052 372 c-17 -11 -13 -144 5 -149 6 -2 13 6 15 19 2 18 11 24 42
29 21 3 42 12 47 20 13 21 11 55 -6 69 -18 15 -86 23 -103 12z m86 -49 c3 -17
-3 -24 -22 -29 -33 -8 -46 1 -46 32 0 22 4 25 33 22 24 -2 33 -8 35 -25z"/>
<path d="M1354 367 c-3 -8 -4 -43 -2 -78 l3 -64 53 -3 c42 -2 52 0 52 12 0 12
-10 16 -39 16 -42 0 -63 16 -40 31 8 5 29 9 47 9 47 0 39 18 -10 22 -30 2 -43
8 -43 18 0 11 13 16 43 18 58 4 50 26 -11 30 -34 2 -49 -1 -53 -11z"/>
<path d="M1647 373 c-13 -12 -7 -22 16 -25 20 -3 22 -9 25 -65 4 -95 32 -79
32 18 0 42 3 49 20 49 11 0 20 7 20 15 0 11 -13 15 -53 15 -30 0 -57 -3 -60
-7z"/>
<path d="M2177 373 c-26 -7 -49 -59 -42 -94 12 -52 78 -77 121 -44 21 16 14
18 -43 15 -42 -2 -63 35 -44 76 10 24 16 26 51 21 29 -4 40 -1 40 8 0 22 -38
30 -83 18z"/>
<path d="M2494 372 c-11 -8 -64 -124 -64 -141 0 -16 20 -13 26 4 9 22 83 20
100 -2 26 -37 26 0 -1 66 -27 68 -42 86 -61 73z m36 -84 c0 -4 -11 -8 -25 -8
-28 0 -30 3 -14 32 11 21 12 21 25 3 8 -10 14 -22 14 -27z"/>
<path d="M2767 373 c-11 -10 -8 -141 3 -148 6 -3 11 -1 11 4 1 6 2 15 3 21 4
28 24 29 51 0 16 -16 32 -30 37 -30 13 0 9 27 -7 40 -13 11 -13 14 0 27 8 8
15 28 15 44 0 22 -6 32 -26 39 -29 11 -78 13 -87 3z m90 -39 c7 -19 -12 -34
-44 -34 -22 0 -33 16 -25 38 6 18 61 15 69 -4z"/>
<path d="M3064 367 c-3 -8 -4 -43 -2 -78 l3 -64 53 -3 c42 -2 52 0 52 12 0 12
-11 16 -41 16 -33 0 -40 3 -37 18 2 12 14 18 41 20 20 2 37 7 37 12 0 5 -17
10 -37 12 -27 2 -39 8 -41 21 -3 14 4 17 38 17 59 0 47 24 -13 28 -34 2 -49
-1 -53 -11z"/>
</g>
</svg>
